<?xml version="1.0" encoding="UTF-8"?>
<svg id="Calque_1" data-name="Calque 1" xmlns="http://www.w3.org/2000/svg" viewBox="0 0 771.16 260.5">
  <defs>
    <style>
      .cls-1 {
        fill: #010101;
        stroke-width: 0px;
      }
    </style>
  </defs>
  <path class="cls-1" d="M130.97,46.75h6.58l2.89.18,2.28-.18c6.02,0,9.76.06,11.23.18l.09,1.67c0,8.28-.12,16.29-.35,24.03-.18,4.58-.26,7.19-.26,7.84,0,10.33.34,16.79,1.01,19.37.68,2.58,2.26,4.65,4.77,6.21,2.5,1.56,5.52,2.33,9.05,2.33,4.29,0,8.4-.89,12.31-2.69,3.91-1.79,7.25-3.98,10.02-6.56.29-2.23.44-4.69.44-7.4,0-8.74.09-14.64.27-17.7.06-1.82.09-3.4.09-4.75,0-9.51-.47-14.88-1.41-16.11-.94-1.23-4.52-2.17-10.74-2.82-2.06-.23-3.55-.44-4.49-.62-.47-.76-.7-1.35-.7-1.76l.26-.97c1.53-.18,3.02-.26,4.49-.26l14,.18c4.99-.12,7.63-.18,7.92-.18.65,0,1.26.03,1.85.09l.18,6.43c-.41,8.92-.65,19.96-.7,33.1l-.18,7.13.35,11.97c.53.94,1,1.5,1.41,1.67.7.29,2.14.44,4.31.44h.79c.76,0,2.93.18,6.51.53.06.76.09,1.32.09,1.67v.97c-7.87,1.7-14.23,3.4-19.1,5.11-1.94.65-3.58,1.11-4.93,1.41-.29-2.05-.44-3.31-.44-3.79v-7.13c0-.29-.03-1.09-.09-2.38-.76.53-1.64,1.18-2.64,1.94-4.64,3.58-9.54,6.6-14.7,9.07-3.46,1.7-6.81,2.55-10.04,2.55-6.16,0-11.18-2.29-15.05-6.87-3.93-4.58-5.9-12.38-5.9-23.42,0-.59.03-1.64.09-3.17.23-2.82.35-4.78.35-5.9,0-.41-.03-1.7-.09-3.87-.06-.94-.09-1.76-.09-2.47,0-.53.03-1.72.09-3.57.06-1.85.09-3.15.09-3.92,0-1-.03-1.88-.09-2.64l-.18-4.67.09-2.47c0-.94-.47-1.79-1.41-2.55-3.7-1-6.12-1.57-7.26-1.72-1.14-.15-2.16-.4-3.04-.75v-2.82Z"/>
  <path class="cls-1" d="M287.95,103.89c.35.76.53,1.32.53,1.67,0,.88-.7,2.44-2.11,4.67-1.82,2.94-3.84,5.08-6.07,6.43-1.41.88-3.35,1.32-5.81,1.32-4.23,0-7.4-1.29-9.51-3.87-1.29-1.53-2.2-4.25-2.73-8.19l-9.86,6.87c-3.46,2-6.11,3.26-7.92,3.79-2.94.76-6.46,1.14-10.56,1.14-2.99,0-5.36-.9-7.09-2.69-1.73-1.79-2.6-4.09-2.6-6.91,0-4.05,2.48-8.89,7.46-14.53s11.72-10.24,20.25-13.82c6-2.52,9.68-4.14,11.03-4.84.12-1.94.18-4.05.18-6.34,0-7.45-1.05-12.5-3.13-15.14-2.09-2.64-5.08-3.96-8.96-3.96s-7.86,1.58-11.39,4.75c-2.18,2-3.83,5.75-4.95,11.27-.35,1.53-1.03,3.17-2.02,4.93-2.52,1.64-4.55,2.47-6.07,2.47-1.29,0-2.47-.38-3.52-1.14-.59-.41-.88-.88-.88-1.41,0-1.53,1.63-4.97,4.89-10.34s7.36-9.39,12.33-12.06c4.96-2.67,9.29-4.01,12.99-4.01,5.05,0,8.8.46,11.27,1.36,2.47.91,4.64,2.51,6.51,4.8,1.88,2.29,3.02,4.78,3.43,7.48.23,1.29.35,5.9.35,13.82l-.26,14,.09,10.21c0,1.35-.03,2.5-.09,3.43-.06,1.7-.09,2.96-.09,3.79,0,1.94.56,3.49,1.67,4.67,1.11,1.18,2.43,1.76,3.96,1.76,2.23,0,4.14-1.11,5.72-3.35l1.06-1.41c.29-.18.94-.38,1.94-.62ZM262.15,101.33c.41-7.45.62-12.71.62-15.76,0-1.58-.09-3.73-.26-6.43-3.95,1.41-8.13,3.55-12.54,6.43-4.42,2.88-7.92,6.19-10.51,9.95-1.88,2.7-2.83,5.25-2.83,7.66s.78,4.2,2.34,5.72c1.56,1.53,3.52,2.29,5.87,2.29,1.83,0,4.03-.65,6.63-1.94,3.41-1.7,6.98-4.34,10.69-7.92Z"/>
  <path class="cls-1" d="M293.23,116.12l-.35-1.14c0-.41.26-1.03.79-1.85l5.19-1.06,7.31-1.32c.59-.29,1-.7,1.23-1.23.35-.76.53-3.02.53-6.77,0-19.92-.12-31.42-.35-34.5-.24-3.08-.76-5.03-1.58-5.85-.82-.82-2.94-1.46-6.34-1.93-2-.29-3.58-.67-4.75-1.14l.35-2.69c6.16-2.53,10.3-4.71,12.41-6.53,2.93-2.65,5.43-6.12,7.48-10.42l2.99.09c.35,2.94.53,9.45.53,19.54l-.09,1.5c0,.35.06.91.18,1.67,2.23-4.05,5.02-7.78,8.36-11.18l2.02-2.02c.82-.94,1.61-1.67,2.38-2.2,4.11-2.47,7.16-3.7,9.16-3.7,2.58,0,4.69.87,6.34,2.6,1.64,1.73,2.47,3.86,2.47,6.38,0,2-.59,3.55-1.76,4.67-1.58,1.47-3.4,2.2-5.46,2.2-.94,0-2.79-.5-5.55-1.5-2.76-1-4.58-1.5-5.46-1.5-1.64,0-2.79.26-3.43.79-1.64,1.29-3.64,3.93-5.99,7.92-1.82,2.99-2.73,5.75-2.73,8.28l.44,14.56.18,17.47c.18,2,.41,3.29.7,3.88.23.41.82.91,1.76,1.5,6.34.53,10.09.91,11.27,1.15.82.06,1.44.12,1.85.18,2.52.06,4.28.41,5.28,1.06.53.29.79.73.79,1.32,0,.35-.24.82-.7,1.41l-9.77-.18-3.7-.09-5.37.09h-8.98l-4.84.26-14.79.26Z"/>
  <path class="cls-1" d="M378.54,28.88l2.73.09.35,8.36-.18,10.83c1.11.06,1.82.09,2.11.09,1.53,0,4.43-.12,8.72-.35,2.76-.18,5.4-.26,7.92-.26,1.17,0,2.93.03,5.28.09.12,1.18.18,2.11.18,2.82,0,.76-.18,1.97-.53,3.61h-1.5l-13.65.44-6.78.18-1.58.18c-.47,1.47-.7,3.17-.7,5.11l.26,13.21-.18,23.24c0,6.11.79,10.15,2.38,12.15,1.53,2.06,3.81,3.08,6.87,3.08,1.53,0,4.4-.47,8.63-1.41,1.29-.29,3.02-1.26,5.19-2.91h.79c.53,0,.95.16,1.28.48.32.32.48.75.48,1.28l-.09.62c-2.52,2.76-5.41,4.77-8.67,6.03s-7.59,1.89-12.99,1.89c-3.82,0-6.97-.88-9.46-2.64-2.5-1.76-4.09-3.84-4.8-6.25-.7-2.41-1.06-7.66-1.06-15.76l.35-19.81-.09-9.51v-3.52c0-1.64-.06-3.29-.18-4.93l-1.5-.09-7.22.26-.7.09c-.65,0-1.13-.15-1.45-.44-.32-.29-.48-.65-.48-1.06,0-.7.22-1.28.66-1.72s1.77-1.13,4.01-2.07c1.53-.65,3.3-1.86,5.33-3.65,2.02-1.79,3.74-3.77,5.15-5.94.7-1.17,1.7-3.4,2.99-6.69.94-2.41,1.64-4.11,2.11-5.11Z"/>
  <path class="cls-1" d="M414.63,53.35l.09-2.6c3.81-1.12,5.87-1.77,6.16-1.94,2.11-.94,4.33-2.38,6.65-4.33,2.32-1.94,4.27-4.12,5.85-6.54.7-.12,1.26-.18,1.67-.18l1.06.09c.23,2.82.35,4.87.35,6.16,0,.29-.06,1.62-.18,3.96v4.67l.09,25.36-.26,26.85c-.06,2.17.29,3.68,1.06,4.53.76.85,3.02,1.8,6.78,2.86,2.35.65,4.11,1.2,5.28,1.67.18.41.26.76.26,1.06,0,.35-.15.79-.44,1.32-2.29-.06-5.22-.21-8.8-.44-4.87-.41-8.1-.62-9.68-.62-.76,0-5.46.15-14.09.44-1.76.06-3.46.2-5.11.44-.29,0-.76-.09-1.41-.26-.29-.41-.44-.76-.44-1.06,0-.82.56-1.47,1.67-1.94.23-.12,3.23-.79,8.98-2.02,1.88-.35,3.11-.94,3.7-1.76,1-1.23,1.5-3.19,1.5-5.89.12-4.51.18-16.88.18-37.1,0-4.04-.18-6.56-.53-7.56-.29-.7-1.07-1.51-2.33-2.42-1.26-.91-3.95-1.83-8.06-2.77ZM422.02,7.66c0-1.94.75-3.61,2.24-5.02s3.3-2.11,5.41-2.11,4.08.79,5.72,2.38c1.64,1.58,2.47,3.29,2.47,5.11s-.82,3.54-2.47,5.15c-1.64,1.62-3.55,2.42-5.72,2.42s-3.99-.73-5.46-2.2c-1.47-1.47-2.2-3.37-2.2-5.72Z"/>
  <path class="cls-1" d="M516.93,69.37l-35.3.26h-6.69c-2.7,0-5.46.12-8.28.36-.53,1.76-.79,2.96-.79,3.61l.09.88v.88l-.09,4.31c0,3.58,1.13,7.97,3.39,13.16,2.26,5.19,5.49,9.16,9.68,11.89,4.2,2.73,9.43,4.18,15.71,4.36,3.35-.18,6.02-.59,8.01-1.23,1.99-.65,4.81-2.14,8.45-4.49l6.34-5.19.53,3.52c0,.41-.03.85-.09,1.32-2.64,3.35-5.99,6.28-10.04,8.8-4.05,2.52-8.16,4.37-12.33,5.55-2,.53-5.28.79-9.86.79-4.17,0-8.28-.85-12.33-2.55-5.99-2.58-10.7-6.73-14.13-12.46s-5.15-12.66-5.15-20.82c0-2.58.48-5.9,1.45-9.95s2.71-8.36,5.24-12.94c1.7-3.11,3.79-5.66,6.25-7.66,3.52-2.82,6.6-4.78,9.24-5.9,3.81-1.58,8.25-2.38,13.29-2.38,5.46,0,9.92,1,13.38,2.99,4.69,2.64,8.2,6.05,10.52,10.21,2.32,4.17,3.48,7.98,3.48,11.44v1.23ZM467.81,66.2h4.14c2.99,0,11.91-.47,26.76-1.41,2.35-.12,3.79-.35,4.31-.7,1.06-1.11,1.58-2.11,1.58-2.99,0-1.82-.59-3.89-1.76-6.21-1.18-2.32-2.98-4.11-5.41-5.37-2.44-1.26-5.27-1.89-8.5-1.89-6.81,0-12.27,2.55-16.38,7.66-3.17,3.87-4.75,7.51-4.75,10.92Z"/>
  <path class="cls-1" d="M525.91,116.12l-.35-1.14c0-.41.26-1.03.79-1.85l5.19-1.06,7.31-1.32c.59-.29,1-.7,1.23-1.23.35-.76.53-3.02.53-6.77,0-19.92-.12-31.42-.35-34.5-.24-3.08-.76-5.03-1.58-5.85-.82-.82-2.94-1.46-6.34-1.93-2-.29-3.58-.67-4.75-1.14l.35-2.69c6.16-2.53,10.3-4.71,12.41-6.53,2.93-2.65,5.43-6.12,7.48-10.42l2.99.09c.35,2.94.53,9.45.53,19.54l-.09,1.5c0,.35.06.91.18,1.67,2.23-4.05,5.02-7.78,8.36-11.18l2.02-2.02c.82-.94,1.61-1.67,2.38-2.2,4.11-2.47,7.16-3.7,9.16-3.7,2.58,0,4.69.87,6.34,2.6,1.64,1.73,2.47,3.86,2.47,6.38,0,2-.59,3.55-1.76,4.67-1.58,1.47-3.4,2.2-5.46,2.2-.94,0-2.79-.5-5.55-1.5-2.76-1-4.58-1.5-5.46-1.5-1.64,0-2.79.26-3.43.79-1.64,1.29-3.64,3.93-5.99,7.92-1.82,2.99-2.73,5.75-2.73,8.28l.44,14.56.18,17.47c.18,2,.41,3.29.7,3.88.23.41.82.91,1.76,1.5,6.34.53,10.09.91,11.27,1.15.82.06,1.44.12,1.85.18,2.52.06,4.28.41,5.28,1.06.53.29.79.73.79,1.32,0,.35-.24.82-.7,1.41l-9.77-.18-3.7-.09-5.37.09h-8.98l-4.84.26-14.79.26Z"/>
  <path class="cls-1" d="M247.95,255.31c-5.75-1.06-9.85-2.17-12.29-3.35-2.44-1.18-4.51-2.66-6.21-4.45-1.7-1.79-4.78-6.22-9.25-13.27l-11.16-19.17c-3.57-5.92-6.36-10.99-8.35-15.21,1.11-.76,2.64-1.64,4.57-2.64,11.31-5.69,16.97-13.94,16.97-24.74,0-5.69-1.56-10.84-4.67-15.45-3.11-4.61-7.29-7.88-12.55-9.82-5.25-1.94-14.42-2.91-27.51-2.91l-8.43.1c-.55-.02-1.09-.05-1.56-.1-25.75-2.25-45.99,5.64-66.63-3.52-5.69-2.53-11.46-6.08-17.3-10.65-5.84-4.57-9.96-8.3-12.37-11.17,1-.53,2.55-.94,4.67-1.23,3.05-.35,7.26-1.79,12.63-4.31,5.37-2.52,10.59-6.35,15.67-11.49,5.08-5.14,9.23-11.71,12.46-19.72,3.23-8.01,4.84-15.8,4.84-23.38,0-11.56-3.11-22.3-9.33-32.22-5.05-7.98-11.78-14.41-20.2-19.28C83.53,2.44,74.04,0,63.48,0s-20.95,2.26-30.11,6.78c-11.44,5.93-19.87,14.09-25.27,24.47C2.7,41.64,0,51.97,0,62.24c0,8.75,2.19,17.29,6.56,25.62,4.37,8.33,10.68,15.32,18.93,20.95,8.25,5.63,17.5,9.18,27.78,10.65,3.11,3.64,7.01,7.36,11.71,11.18,6.98,5.58,13.45,10.04,19.41,13.38,7.68,4.31,24.86,10.35,33.69,10.05,12.16-.4,16.6-3.56,24.64-3.78,1.14-.03,2.08,0,2.87.04,4.08.63,6.65,1.63,7.67,3.01,1.09,1.47,1.6,5.54,1.54,12.23l-.09,15.83.09,22.08-.18,11.88.26,10.47c0,2.46-.06,4.98-.17,7.56-.47,9.15-.7,14.46-.7,15.92v.97c-.64,1.47-1.34,2.35-2.1,2.64-1.11.41-5.93,1.12-14.46,2.11-.82.7-1.23,1.32-1.23,1.85l.18.88,1.76.35c4.8-.18,7.47-.26,8-.26l11.69.09,11.95-.18c.7,0,1.61.03,2.73.09,2.17.12,5.89.18,11.16.18.64,0,1.76-.15,3.34-.44,0-1-.24-1.79-.7-2.38l-3.61-.88c-5.46-1.35-8.76-2.36-9.9-3.04-1.14-.67-1.95-1.57-2.42-2.69-.53-1.99-.76-3.55-.7-4.67v-30.11c0-5.81.09-9.65.26-11.53l2.47.09,7.48-.09c1.88,0,3.39.31,4.53.93,1.14.62,2.6,2.16,4.36,4.63l13.03,23.81c5.63,9.58,10.53,18.37,14.7,26.36,1.35.12,2.41.18,3.17.18,10.8,0,20.22-.06,28.26-.18.06-.53.09-.97.09-1.32s-.03-.82-.09-1.41ZM59.69,115.95c-2.82,0-5.84-.29-9.07-.88-6.05-1.58-10.8-3.99-14.26-7.23-5.99-5.52-10.61-12.76-13.87-21.72-3.26-8.96-4.89-18.14-4.89-27.53,0-11.51,1.47-20.5,4.4-26.96,4.64-10.16,10.42-17.3,17.34-21.41,6.92-4.11,14.35-6.17,22.27-6.17,6.75,0,12.34,1.22,16.77,3.66,4.43,2.44,8.7,6.24,12.81,11.41,4.11,5.17,7.04,10.31,8.8,15.42,2.64,7.4,3.96,15.6,3.96,24.58,0,11.4-1.44,20.88-4.31,28.46-2.88,7.58-6.31,13.45-10.3,17.62-3.05,3.17-7.15,5.76-12.28,7.75-5.14,2-10.93,2.99-17.39,2.99ZM197.68,192.33c-2.41,1.73-5.55,2.97-9.42,3.74-5.52,1-10.39,1.49-14.61,1.49-.76,0-1.94-.03-3.52-.09-.24-7.09-.35-12.92-.35-17.49l.09-6.77-.44-16.43c0-1.64.12-3.98.35-7.03,2.52-.18,4.58-.26,6.16-.26,6.46,0,11.99,1.14,16.6,3.43,4.61,2.28,7.88,5.12,9.82,8.52,2.52,4.45,3.79,8.67,3.79,12.65,0,3.63-.81,7.15-2.42,10.55-1.62,3.4-3.62,5.96-6.03,7.69Z"/>
  <path class="cls-1" d="M255.04,195.27l.09-2.6c3.81-1.12,5.87-1.77,6.16-1.94,2.11-.94,4.33-2.38,6.65-4.33,2.32-1.94,4.27-4.12,5.85-6.54.7-.12,1.26-.18,1.67-.18l1.06.09c.23,2.82.35,4.87.35,6.16,0,.29-.06,1.62-.18,3.96v4.67l.09,25.36-.26,26.85c-.06,2.17.29,3.68,1.06,4.53.76.85,3.02,1.8,6.78,2.86,2.35.65,4.11,1.2,5.28,1.67.18.41.26.76.26,1.06,0,.35-.15.79-.44,1.32-2.29-.06-5.22-.21-8.8-.44-4.87-.41-8.1-.62-9.68-.62-.76,0-5.46.15-14.09.44-1.76.06-3.46.2-5.11.44-.29,0-.76-.09-1.41-.26-.29-.41-.44-.76-.44-1.06,0-.82.56-1.47,1.67-1.94.23-.12,3.23-.79,8.98-2.02,1.88-.35,3.11-.94,3.7-1.76,1-1.23,1.5-3.19,1.5-5.89.12-4.51.18-16.88.18-37.1,0-4.04-.18-6.56-.53-7.56-.29-.7-1.07-1.51-2.33-2.42-1.26-.91-3.95-1.83-8.06-2.77ZM262.44,149.57c0-1.94.75-3.61,2.24-5.02s3.3-2.11,5.41-2.11,4.08.79,5.72,2.38c1.64,1.58,2.47,3.29,2.47,5.11s-.82,3.54-2.47,5.15c-1.64,1.62-3.55,2.42-5.72,2.42s-3.99-.73-5.46-2.2c-1.47-1.47-2.2-3.37-2.2-5.72Z"/>
  <path class="cls-1" d="M356.76,241.66l.09,5.72c-4.58,4.87-9.1,8.28-13.56,10.21-4.46,1.94-9.71,2.91-15.76,2.91-6.57,0-12.5-1.72-17.78-5.15s-9.35-8.29-12.19-14.57c-2.85-6.28-4.27-12.44-4.27-18.49,0-6.63,1.72-12.9,5.15-18.8,3.43-5.9,7.98-10.3,13.65-13.21,5.66-2.91,12.78-4.36,21.35-4.36s14.47,1.41,18.75,4.23c2.41,1.64,3.61,3.76,3.61,6.34,0,1.88-.62,3.43-1.85,4.67s-2.82,1.85-4.75,1.85c-2.94,0-6.16-1.82-9.68-5.46-2.17-2.23-4.14-3.77-5.9-4.62-1.76-.85-3.73-1.28-5.9-1.28-5.22,0-9.57,2.14-13.03,6.43-4.81,6.11-7.22,13.76-7.22,22.98s2.47,17.08,7.4,22.71,10.68,8.45,17.26,8.45c4.58,0,8.64-.75,12.19-2.24,3.55-1.5,7.7-4.27,12.46-8.32Z"/>
  <path class="cls-1" d="M362.57,255.57c6.87-1.23,10.83-2.17,11.89-2.81.65-.41.97-1.35.97-2.82l-.09-5.81.09-10.29-.18-26.21.09-9.76v-6.95l.26-8.53c0-13.37-.13-21.36-.4-23.97s-.78-4.24-1.54-4.88c-1.41-1.35-5.28-2.76-11.62-4.22v-.44c0-.41.06-1,.18-1.76.82-.12,1.61-.26,2.38-.44.76-.18,1.5-.29,2.2-.35,6.98-1.99,12.06-3.93,15.23-5.81h4.31c.12,1.65.18,6.84.18,15.59l-.09,11.19.09,14.45-.35,17.79c0,1.06.06,2.23.18,3.52,3.7-4.29,6.41-7.15,8.11-8.56,3.06-2.47,6.32-4.42,9.79-5.87,3.47-1.44,7.11-2.16,10.94-2.16,7.23,0,13.14,3.05,17.73,9.14,2.65,3.58,3.97,8.65,3.97,15.21l-.26,8.97.09,5.01-.35,8.7c-.24,7.21-.35,11.49-.35,12.84,0,1.52.06,3.57.18,6.15l5.02,1.14c3.35.7,5.93,1.35,7.75,1.93l-.09,2.73-18.75-.53c-1.06,0-3.93.12-8.63.35-2.88.12-4.55.18-5.02.18h-1.94c-.29-.53-.44-.97-.44-1.32v-.79c.82-1.06,2.35-1.76,4.58-2.11l5.28-1.23c.7-.59,1.11-1.2,1.23-1.85.23-1.52.5-9.08.79-22.68l.18-6.51c.23-6.86-.3-12.54-1.59-17.05-.82-3.11-2.69-5.58-5.6-7.43-2.91-1.85-6.28-2.77-10.1-2.77-3.18,0-6.18.67-9,2.02-1.94,1-4.27,2.73-6.97,5.19-2.71,2.46-4.59,4.57-5.65,6.33-.71,1.17-1.06,3.1-1.06,5.79l.09,6.14-.18,6.41c0,.53.09,4.18.26,10.97l-.09,5.62.18,6.14c.06.88.15,1.52.26,1.93l12.41,2.98c.65.18,1.61.54,2.91,1.08l.26.99c0,.3-.15.78-.44,1.44-1.7.06-2.99.09-3.87.09l-6.87-.09-15.14.18-11.36.35c-.59-.06-1.47-.12-2.64-.18l-.09-.62c0-.47.23-1.06.7-1.76Z"/>
  <path class="cls-1" d="M520.86,211.29l-35.3.26h-6.69c-2.7,0-5.46.12-8.28.36-.53,1.76-.79,2.96-.79,3.61l.09.88v.88l-.09,4.31c0,3.58,1.13,7.97,3.39,13.16,2.26,5.19,5.49,9.16,9.68,11.89,4.2,2.73,9.43,4.18,15.71,4.36,3.35-.18,6.02-.59,8.01-1.23,1.99-.65,4.81-2.14,8.45-4.49l6.34-5.19.53,3.52c0,.41-.03.85-.09,1.32-2.64,3.35-5.99,6.28-10.04,8.8-4.05,2.52-8.16,4.37-12.33,5.55-2,.53-5.28.79-9.86.79-4.17,0-8.28-.85-12.33-2.55-5.99-2.58-10.7-6.73-14.13-12.46s-5.15-12.66-5.15-20.82c0-2.58.48-5.9,1.45-9.95s2.71-8.36,5.24-12.94c1.7-3.11,3.79-5.66,6.25-7.66,3.52-2.82,6.6-4.78,9.24-5.9,3.81-1.58,8.25-2.38,13.29-2.38,5.46,0,9.92,1,13.38,2.99,4.69,2.64,8.2,6.05,10.52,10.21,2.32,4.17,3.48,7.98,3.48,11.44v1.23ZM471.74,208.12h4.14c2.99,0,11.91-.47,26.76-1.41,2.35-.12,3.79-.35,4.31-.7,1.06-1.11,1.58-2.11,1.58-2.99,0-1.82-.59-3.89-1.76-6.21-1.18-2.32-2.98-4.11-5.41-5.37-2.44-1.26-5.27-1.89-8.5-1.89-6.81,0-12.27,2.55-16.38,7.66-3.17,3.87-4.75,7.51-4.75,10.92Z"/>
  <path class="cls-1" d="M530.81,148.69v-1.94c1.64-.53,3.46-1.09,5.46-1.67,2.95-.94,7.31-2.38,13.1-4.31h4.16v4.85c0,48.22-.15,76.98-.44,86.26-.18,5.46-.26,8.37-.26,8.72,0,6.58.26,10.25.79,11.01.7,1.06,2.86,1.79,6.47,2.2s5.74.82,6.38,1.23c.47.24.7.65.7,1.23,0,.65-.13,1.1-.4,1.36s-.75.4-1.45.4c-.41,0-3.49-.1-9.24-.3l-11.53-.4-14.79.7c-.94.06-1.64-.12-2.11-.54-.35-.3-.53-.72-.53-1.26,0-.6.19-1.04.57-1.31.38-.27,2.49-.73,6.34-1.38,3.84-.65,6.04-1.19,6.6-1.63.56-.44.92-1.42,1.1-2.95.23-2.11.35-8.07.35-17.87l-.09-20.25.26-20.95-.09-20.95.26-10.3c0-2.05-.32-3.54-.97-4.45-.65-.91-2.02-1.8-4.14-2.69-3.17-1.29-5.34-2.23-6.51-2.82Z"/>
  <path class="cls-1" d="M576.84,195.27l.09-2.6c3.81-1.12,5.87-1.77,6.16-1.94,2.11-.94,4.33-2.38,6.65-4.33,2.32-1.94,4.27-4.12,5.85-6.54.7-.12,1.26-.18,1.67-.18l1.06.09c.23,2.82.35,4.87.35,6.16,0,.29-.06,1.62-.18,3.96v4.67l.09,25.36-.26,26.85c-.06,2.17.29,3.68,1.06,4.53.76.85,3.02,1.8,6.78,2.86,2.35.65,4.11,1.2,5.28,1.67.18.41.26.76.26,1.06,0,.35-.15.79-.44,1.32-2.29-.06-5.22-.21-8.8-.44-4.87-.41-8.1-.62-9.68-.62-.76,0-5.46.15-14.09.44-1.76.06-3.46.2-5.11.44-.29,0-.76-.09-1.41-.26-.29-.41-.44-.76-.44-1.06,0-.82.56-1.47,1.67-1.94.23-.12,3.23-.79,8.98-2.02,1.88-.35,3.11-.94,3.7-1.76,1-1.23,1.5-3.19,1.5-5.89.12-4.51.18-16.88.18-37.1,0-4.04-.18-6.56-.53-7.56-.29-.7-1.07-1.51-2.33-2.42-1.26-.91-3.95-1.83-8.06-2.77ZM584.23,149.57c0-1.94.75-3.61,2.24-5.02,1.5-1.41,3.3-2.11,5.41-2.11s4.08.79,5.72,2.38c1.64,1.58,2.47,3.29,2.47,5.11s-.82,3.54-2.47,5.15c-1.64,1.62-3.55,2.42-5.72,2.42s-3.99-.73-5.46-2.2c-1.47-1.47-2.2-3.37-2.2-5.72Z"/>
  <path class="cls-1" d="M678.54,211.29l-35.3.26h-6.69c-2.7,0-5.46.12-8.28.36-.53,1.76-.79,2.96-.79,3.61l.09.88v.88l-.09,4.31c0,3.58,1.13,7.97,3.39,13.16,2.26,5.19,5.49,9.16,9.68,11.89,4.2,2.73,9.43,4.18,15.71,4.36,3.35-.18,6.02-.59,8.01-1.23,1.99-.65,4.81-2.14,8.45-4.49l6.34-5.19.53,3.52c0,.41-.03.85-.09,1.32-2.64,3.35-5.99,6.28-10.04,8.8-4.05,2.52-8.16,4.37-12.33,5.55-2,.53-5.28.79-9.86.79-4.17,0-8.28-.85-12.33-2.55-5.99-2.58-10.7-6.73-14.13-12.46s-5.15-12.66-5.15-20.82c0-2.58.48-5.9,1.45-9.95s2.71-8.36,5.24-12.94c1.7-3.11,3.79-5.66,6.25-7.66,3.52-2.82,6.6-4.78,9.24-5.9,3.81-1.58,8.25-2.38,13.29-2.38,5.46,0,9.92,1,13.38,2.99,4.69,2.64,8.2,6.05,10.52,10.21,2.32,4.17,3.48,7.98,3.48,11.44v1.23ZM629.42,208.12h4.14c2.99,0,11.91-.47,26.76-1.41,2.35-.12,3.79-.35,4.31-.7,1.06-1.11,1.58-2.11,1.58-2.99,0-1.82-.59-3.89-1.76-6.21-1.18-2.32-2.98-4.11-5.41-5.37-2.44-1.26-5.27-1.89-8.5-1.89-6.81,0-12.27,2.55-16.38,7.66-3.17,3.87-4.75,7.51-4.75,10.92Z"/>
  <path class="cls-1" d="M686.82,188.66h6.58l2.89.18,2.28-.18c6.02,0,9.76.06,11.23.18l.09,1.67c0,8.28-.12,16.29-.35,24.03-.18,4.58-.26,7.19-.26,7.84,0,10.33.34,16.79,1.01,19.37.68,2.58,2.26,4.65,4.77,6.21,2.5,1.56,5.52,2.33,9.05,2.33,4.29,0,8.4-.89,12.31-2.69,3.91-1.79,7.25-3.98,10.02-6.56.29-2.23.44-4.69.44-7.4,0-8.74.09-14.64.27-17.7.06-1.82.09-3.4.09-4.75,0-9.51-.47-14.88-1.41-16.11-.94-1.23-4.52-2.17-10.74-2.82-2.06-.23-3.55-.44-4.49-.62-.47-.76-.7-1.35-.7-1.76l.26-.97c1.53-.18,3.02-.26,4.49-.26l14,.18c4.99-.12,7.63-.18,7.92-.18.65,0,1.26.03,1.85.09l.18,6.43c-.41,8.92-.65,19.96-.7,33.1l-.18,7.13.35,11.97c.53.94,1,1.5,1.41,1.67.7.29,2.14.44,4.31.44h.79c.76,0,2.93.18,6.51.53.06.76.09,1.32.09,1.67v.97c-7.87,1.7-14.23,3.4-19.1,5.11-1.94.65-3.58,1.11-4.93,1.41-.29-2.05-.44-3.31-.44-3.79v-7.13c0-.29-.03-1.09-.09-2.38-.76.53-1.64,1.18-2.64,1.94-4.64,3.58-9.54,6.6-14.7,9.07-3.46,1.7-6.81,2.55-10.04,2.55-6.16,0-11.18-2.29-15.05-6.87-3.93-4.58-5.9-12.38-5.9-23.42,0-.59.03-1.64.09-3.17.23-2.82.35-4.78.35-5.9,0-.41-.03-1.7-.09-3.87-.06-.94-.09-1.76-.09-2.47,0-.53.03-1.72.09-3.57.06-1.85.09-3.15.09-3.92,0-1-.03-1.88-.09-2.64l-.18-4.67.09-2.47c0-.94-.47-1.79-1.41-2.55-3.7-1-6.12-1.57-7.26-1.72-1.14-.15-2.16-.4-3.04-.75v-2.82Z"/>
</svg>